<svg width="24" height="24" viewBox="0 0 24 24" fill="none" xmlns="http://www.w3.org/2000/svg">
<path d="M9 11.25V16.5C9 16.7984 8.88147 17.0845 8.6705 17.2955C8.45952 17.5065 8.17337 17.625 7.875 17.625C7.57663 17.625 7.29048 17.5065 7.0795 17.2955C6.86853 17.0845 6.75 16.7984 6.75 16.5V11.25C6.75 10.9516 6.86853 10.6655 7.0795 10.4545C7.29048 10.2435 7.57663 10.125 7.875 10.125C8.17337 10.125 8.45952 10.2435 8.6705 10.4545C8.88147 10.6655 9 10.9516 9 11.25ZM11.625 17.625C11.9234 17.625 12.2095 17.5065 12.4205 17.2955C12.6315 17.0845 12.75 16.7984 12.75 16.5V13.875C12.75 13.4772 12.908 13.0956 13.1893 12.8143C13.4706 12.533 13.8522 12.375 14.25 12.375C14.6478 12.375 15.0294 12.533 15.3107 12.8143C15.592 13.0956 15.75 13.4772 15.75 13.875V16.5C15.75 16.7984 15.8685 17.0845 16.0795 17.2955C16.2905 17.5065 16.5766 17.625 16.875 17.625C17.1734 17.625 17.4595 17.5065 17.6705 17.2955C17.8815 17.0845 18 16.7984 18 16.5V13.875C17.9998 13.2295 17.833 12.5951 17.5157 12.0329C17.1985 11.4708 16.7415 11.0001 16.189 10.6664C15.6365 10.3326 15.0073 10.1471 14.3621 10.1278C13.7169 10.1085 13.0777 10.2561 12.5062 10.5562C12.3614 10.3737 12.1634 10.2407 11.9397 10.1755C11.716 10.1103 11.4776 10.1162 11.2573 10.1923C11.0371 10.2685 10.8459 10.4111 10.7103 10.6006C10.5746 10.7901 10.5011 11.017 10.5 11.25V16.5C10.5 16.7984 10.6185 17.0845 10.8295 17.2955C11.0405 17.5065 11.3266 17.625 11.625 17.625ZM21.75 4.125V19.875C21.7475 20.3715 21.5492 20.847 21.1981 21.1981C20.847 21.5492 20.3715 21.7475 19.875 21.75H4.125C3.62848 21.7475 3.153 21.5492 2.8019 21.1981C2.4508 20.847 2.25246 20.3715 2.25 19.875V4.125C2.25246 3.62848 2.4508 3.153 2.8019 2.8019C3.153 2.4508 3.62848 2.25246 4.125 2.25H19.875C20.3715 2.25246 20.847 2.4508 21.1981 2.8019C21.5492 3.153 21.7475 3.62848 21.75 4.125ZM19.5 4.5H4.5V19.5H19.5V4.5ZM7.875 9C8.17167 9 8.46168 8.91203 8.70835 8.7472C8.95503 8.58238 9.14729 8.34811 9.26082 8.07403C9.37435 7.79994 9.40406 7.49834 9.34618 7.20736C9.2883 6.91639 9.14544 6.64912 8.93566 6.43934C8.72588 6.22956 8.45861 6.0867 8.16764 6.02882C7.87666 5.97094 7.57506 6.00065 7.30097 6.11418C7.02689 6.22771 6.79262 6.41997 6.6278 6.66665C6.46297 6.91332 6.375 7.20333 6.375 7.5C6.375 7.89782 6.53304 8.27936 6.81434 8.56066C7.09564 8.84196 7.47718 9 7.875 9Z" fill="white"/>
</svg>
