<?xml version="1.0" encoding="UTF-8"?><svg id="_人" xmlns="http://www.w3.org/2000/svg" viewBox="0 0 100 100"><defs><style>.cls-1{fill:#fff;}</style></defs><path class="cls-1" d="m18.63,41.08c4.61-4.11,11.26-6.14,17.43-6.43,6.6-.31,13.4,1.12,18.96,4.77,1.1.72,2.73.44,3.64-.47.98-.98,1.07-2.44.47-3.64-.32-.62-.26-1.18.33-1.87l-3.64.47c1.98,1.32,3.96,2.64,5.94,3.97,2.84,1.9,6.1-2.39,3.64-4.71-.33-.31-.08-.18-.04.07,0,.07.06.62.07.3.01-.48-.02.43-.13.38-.01,0,.26-.45.29-.48-.26.36.27-.14.07-.03-.14.08.31-.19.37-.22.17-.09.72-.29,1.17-.35,1.93-.29,3.86.4,5.51,1.38.05.03.45.32.17.11-.32-.24.32.27.31.26.34.29.68.59,1.01.9.73.68,1.43,1.39,2.12,2.11s1.33,1.42,1.97,2.16c.28.32.55.63.82.96.1.13.2.25.31.38.5.58-.36-.48.03.04,1.05,1.39,3.34,2.24,4.71.61,3.22-3.85,1-9.04-.21-13.26l-2.89,3.8c2.52.26,5.04.96,7.3,2.11s5.24-.75,4.41-3.39c.29.91.05.75.08.38.01-.19,0-.39,0-.58,0-.36.02-.71,0-1.07-.11-1.7-1.11-3.32-2.26-4.53-1.9-1.99-4.6-2.75-6.89-4.14l-.72,5.48c3.73-.5,6.83-2.14,9.71-4.49,2.26-1.85,5.23-4.85,4.22-8.08-.89-2.83-4.91-2.87-5.79,0v.02c.45-.6.91-1.2,1.37-1.79-.1.08.81-.22.45-.19-.13.01-.3.08-.42.11-.37.1-.75.17-1.12.25-.94.2-1.89.38-2.84.55-.36.07-.72.13-1.09.19-.23.04-.81.13-.23.05-1.24.18-2.98.56-4.16.05l-.72,5.48c6.82-2.67,13.33-7.58,15.34-14.95.81-2.98-2.85-4.9-5.01-2.92.11-.1,1.68-.7.96-.65-.16.01-.34.07-.49.1-.49.1-.99.18-1.49.27-.94.16-1.89.3-2.83.47-3.27.6-6.52,1.69-9.61,2.9-3.4,1.32-6.56,2.98-9.75,4.72-.27.15-.53.29-.81.42-.48.23.14-.01-.37.14-.29.08-.57.17-.86.22.4-.08-.51.02-.68.02-1.72,0-3.44-.49-5.1-.92-3.85-1-7.62-2.15-11.62-2.36s-8.03.36-11.85,1.41c-6.67,1.81-13.19,5.15-18.06,10.11-5.74,5.84-8.59,14.01-6.5,22.07.97,3.74,6.76,2.15,5.79-1.6-3.43-13.24,10.29-22.37,21.46-25.08,3.56-.86,7.34-1.26,10.99-.75s6.95,1.79,10.46,2.53,6.46.86,9.64-.74c2.82-1.42,5.48-3.06,8.43-4.24,3.27-1.3,6.73-2.49,10.2-3.09,1.96-.34,4.8-.3,6.34-1.71l-5.01-2.92c-.36,1.31-.6,1.9-1.35,3.12s-1.4,1.99-2.46,3.02c-2.06,2-4.62,3.56-7.34,4.63-1.13.44-2,1.22-2.15,2.49-.13,1.07.34,2.52,1.43,2.99,3.32,1.43,6.65.94,10.1.32,2.25-.41,5.96-.53,6.75-3.15h-5.79c.14.44.04-.55.04-.72,0,.27-.34.6,0,.08-.13.21-.25.42-.39.63.29-.44-.11.14-.22.26-.7.79-1.79,1.76-2.42,2.24-1.82,1.37-4.22,2.37-6.76,2.71-1.14.15-2.03,1.47-2.15,2.49-.14,1.2.38,2.35,1.43,2.99,1.69,1.03,4.08,1.73,5.42,2.95.34.31.48.67.77,1.01.48.57-.68-.18,0-.32,0,0,0,.39,0,.42-.04.71-.09,1.61.12,2.3l4.41-3.39c-3.26-1.67-6.69-2.56-10.32-2.93-1.96-.2-3.39,2.08-2.89,3.8.45,1.55.99,3.08,1.35,4.66.1.43.19.86.26,1.3,0,.03.04.33.05.76,0,.2,0,.39,0,.59,0,.49.06-.44,0,.02-.02.16,0,.49-.04.25.08-.16.08-.17,0-.02-.11.19-.07.15.13-.12l4.71.61c-1.56-2.07-3.29-4-5.12-5.83-2.06-2.05-4.19-3.79-6.98-4.74-3.22-1.1-7.35-1.14-10.2.93s-4.03,6.24-1.16,8.96l3.64-4.71c-1.98-1.32-3.96-2.64-5.94-3.97-1.03-.69-2.81-.49-3.64.47-2.3,2.67-2.88,5.95-1.27,9.14l4.1-4.1c-12.7-8.33-32.2-7.62-43.67,2.6-1.21,1.08-1.1,3.14,0,4.24,1.2,1.2,3.03,1.08,4.24,0h0Z"/><g><path class="cls-1" d="m15,36.45v23.72l1.49-2.59-6,4c-1.93,1.29-1.93,3.89,0,5.18l6,4-1.49-2.59v23.56c0,1.62,1.37,3,3,3h12.14c3.86,0,3.87-6,0-6h-12.14l3,3v-20.68c0-2.02.37-4.16-1.52-5.49s-3.98-2.65-5.96-3.98v5.18c1.88-1.25,3.77-2.49,5.64-3.76,1.11-.76,1.8-1.63,1.84-3.04.02-.64,0-1.29,0-1.93v-21.57c0-3.86-6-3.87-6,0h0Z"/><path class="cls-1" d="m79,36.45v12.6c0,2.75,0,5.5,0,8.25,0,2.02-.37,4.14,1.52,5.47s3.98,2.65,5.96,3.98v-5.18c-1.86,1.24-3.74,2.47-5.59,3.73-1.11.76-1.84,1.67-1.89,3.08-.02.62,0,1.24,0,1.86v16.52c0,1.65,0,3.31,0,4.96l3-3c-4.05,0-8.09,0-12.14,0s-3.87,6,0,6,8.09,0,12.14,0c1.62,0,3-1.37,3-3,0-6.87,0-13.73,0-20.6v-2.96c-.5.86-.99,1.73-1.49,2.59l6-4c1.93-1.29,1.93-3.89,0-5.18s-4-2.67-6-4l1.49,2.59c0-6.92,0-13.85,0-20.77v-2.95c0-3.86-6-3.87-6,0h0Z"/></g><g><g><rect class="cls-1" x="31.45" y="59.3" width="6.63" height="28.43" rx="3.32" ry="3.32" transform="translate(101.63 119.8) rotate(150)"/><path class="cls-1" d="m40.22,87.27c-1.49,0-2.95-.77-3.74-2.16l-10.9-18.88c-1.19-2.06-.48-4.71,1.58-5.9h0c2.06-1.19,4.71-.48,5.9,1.58l10.9,18.88c.58,1,.73,2.16.43,3.27s-1.01,2.04-2.01,2.62c-.68.39-1.42.58-2.15.58Zm-12.06-25.2h0c-1.11.64-1.49,2.06-.85,3.16l10.9,18.88c.64,1.1,2.06,1.48,3.16.85.54-.31.92-.81,1.08-1.41s.08-1.22-.23-1.76l-10.9-18.88c-.64-1.11-2.06-1.49-3.16-.85Z"/></g><g><rect class="cls-1" x="31.45" y="40.45" width="6.63" height="28.43" rx="3.32" ry="3.32" transform="translate(31.99 -10.06) rotate(30)"/><path class="cls-1" d="m29.31,68.42c-.73,0-1.47-.19-2.15-.58h0c-2.06-1.19-2.77-3.83-1.58-5.9l10.9-18.88c1.19-2.06,3.84-2.77,5.9-1.58,2.06,1.19,2.77,3.83,1.58,5.9l-10.9,18.88c-.8,1.38-2.25,2.16-3.75,2.16Zm-1.15-2.31c1.11.64,2.52.26,3.16-.85l10.9-18.88c.64-1.11.26-2.52-.85-3.16-1.11-.64-2.52-.26-3.16.85l-10.9,18.88c-.64,1.11-.26,2.52.85,3.16h0Z"/></g></g><g><g><rect class="cls-1" x="61.92" y="40.45" width="6.63" height="28.43" rx="3.32" ry="3.32" transform="translate(-18.59 39.94) rotate(-30)"/><path class="cls-1" d="m70.69,68.42c-.38,0-.75-.05-1.12-.15-1.11-.3-2.04-1.01-2.62-2.01l-10.9-18.88c-1.19-2.06-.48-4.71,1.58-5.9,1-.58,2.16-.73,3.27-.43,1.11.3,2.04,1.01,2.62,2.01l10.9,18.88c1.19,2.06.48,4.71-1.58,5.9h0c-.67.38-1.4.58-2.15.58Zm-10.91-25.51c-.4,0-.8.11-1.15.31-1.11.64-1.49,2.06-.85,3.16l10.9,18.88c.64,1.11,2.05,1.49,3.16.85h0c1.11-.64,1.49-2.06.85-3.16l-10.9-18.88c-.31-.54-.81-.92-1.41-1.08-.2-.05-.4-.08-.6-.08Z"/></g><g><rect class="cls-1" x="61.92" y="59.3" width="6.63" height="28.43" rx="3.32" ry="3.32" transform="translate(84.97 169.8) rotate(-150)"/><path class="cls-1" d="m59.78,87.27c-.75,0-1.49-.2-2.15-.58-1-.58-1.71-1.51-2.01-2.62-.3-1.11-.15-2.28.43-3.27l10.9-18.88c.58-1,1.51-1.71,2.62-2.01,1.11-.3,2.28-.15,3.27.43h0c2.06,1.19,2.77,3.83,1.58,5.9l-10.9,18.88c-.58,1-1.51,1.71-2.62,2.01-.37.1-.75.15-1.12.15Zm10.91-25.51c-.8,0-1.58.42-2.01,1.16l-10.9,18.88c-.64,1.11-.26,2.52.85,3.16.54.31,1.16.39,1.76.23.6-.16,1.1-.54,1.41-1.08l10.9-18.88c.64-1.11.26-2.52-.85-3.16-.36-.21-.76-.31-1.15-.31Z"/></g></g><g><rect class="cls-1" x="47.49" y="54.8" width="6.63" height="19.62" rx="3.32" ry="3.32" transform="translate(62.5 145.97) rotate(-150)"/><path class="cls-1" d="m47.55,74.55c-.73,0-1.47-.19-2.15-.58-1-.58-1.71-1.51-2.01-2.62-.3-1.11-.15-2.28.43-3.27l6.5-11.25c.58-1,1.51-1.71,2.62-2.01,1.11-.3,2.28-.15,3.27.43h0c1,.58,1.71,1.51,2.01,2.62.3,1.11.15,2.28-.43,3.27l-6.5,11.25c-.8,1.38-2.25,2.16-3.74,2.16Zm6.51-17.88c-.2,0-.4.03-.6.08-.6.16-1.1.54-1.41,1.08l-6.5,11.25c-.31.54-.39,1.16-.23,1.76s.54,1.1,1.08,1.41c1.11.64,2.52.26,3.16-.85l6.5-11.25c.31-.54.39-1.16.23-1.76s-.54-1.1-1.08-1.41h0c-.36-.21-.75-.31-1.15-.31Z"/></g></svg>