<svg xmlns="http://www.w3.org/2000/svg" width="32" height="32" viewBox="0 0 24 24"><path fill="#fff" d="M11.75 16h.725v-.8q.7-.1 1.188-.575q.487-.475.487-1.225q0-.65-.5-1.088q-.5-.437-1.15-.712V9.75q.25.075.413.25q.162.175.237.425l.9-.375q-.175-.525-.6-.838q-.425-.312-.95-.412V8h-.75v.775q-.7.075-1.188.512q-.487.438-.487 1.163q0 .675.513 1.125q.512.45 1.162.725v1.975q-.4-.125-.675-.425t-.375-.7l-.875.375q.2.7.7 1.15q.5.45 1.225.55Zm.75-1.75V12.6q.275.125.488.3q.212.175.212.525q0 .4-.2.562q-.2.163-.5.263Zm-.75-2.975q-.275-.125-.5-.3q-.225-.175-.225-.525q0-.35.225-.512q.225-.163.5-.213ZM8 19q-2.925 0-4.962-2.038Q1 14.925 1 12t2.038-4.963Q5.075 5 8 5h8q2.925 0 4.962 2.037Q23 9.075 23 12q0 2.925-2.038 4.962Q18.925 19 16 19Z"/></svg>