<svg width="20" height="20" viewBox="0 0 20 20" fill="none" xmlns="http://www.w3.org/2000/svg">
<rect width="19.3333" height="19.3333" rx="9.66667" fill="white"/>
<path d="M9.73333 16.3333C8.8 16.3333 7.92489 16.1556 7.108 15.8C6.29156 15.4444 5.58067 14.964 4.97533 14.3587C4.36956 13.7529 3.88889 13.0416 3.53333 12.2247C3.17778 11.4082 3 10.5333 3 9.6C3 7.97778 3.51667 6.54711 4.55 5.308C5.58333 4.06933 6.9 3.3 8.5 3C8.3 4.1 8.36111 5.17489 8.68333 6.22467C9.00556 7.27489 9.56111 8.19444 10.35 8.98333C11.1389 9.77222 12.0584 10.3278 13.1087 10.65C14.1584 10.9722 15.2333 11.0333 16.3333 10.8333C16.0444 12.4333 15.2778 13.75 14.0333 14.7833C12.7889 15.8167 11.3556 16.3333 9.73333 16.3333Z" fill="#161E1C"/>
</svg>
