<svg width="48" height="48" viewBox="0 0 48 48" fill="none" xmlns="http://www.w3.org/2000/svg">
<path d="M13.4438 18.225L6.525 24L13.4438 29.775C13.6777 29.9622 13.8719 30.1943 14.015 30.4576C14.1581 30.7209 14.2471 31.0101 14.2769 31.3083C14.3067 31.6064 14.2766 31.9075 14.1884 32.1939C14.1003 32.4803 13.9558 32.7462 13.7635 32.976C13.5711 33.2058 13.3349 33.3948 13.0685 33.5321C12.8021 33.6693 12.511 33.7519 12.2122 33.7751C11.9135 33.7983 11.6131 33.7616 11.3288 33.6672C11.0444 33.5727 10.7817 33.4224 10.5563 33.225L1.55625 25.725C1.30408 25.5139 1.10128 25.25 0.962123 24.9519C0.82297 24.6539 0.750854 24.329 0.750854 24C0.750854 23.6711 0.82297 23.3462 0.962123 23.0482C1.10128 22.7501 1.30408 22.4862 1.55625 22.275L10.5563 14.775C11.0155 14.4076 11.6003 14.2346 12.1856 14.293C12.7708 14.3515 13.3099 14.6368 13.6874 15.0878C14.0649 15.5388 14.2507 16.1197 14.2052 16.7061C14.1597 17.2925 13.8863 17.8377 13.4438 18.225ZM46.4438 22.275L37.4438 14.775C36.9845 14.4076 36.3997 14.2346 35.8144 14.293C35.2292 14.3515 34.6901 14.6368 34.3126 15.0878C33.9351 15.5388 33.7493 16.1197 33.7948 16.7061C33.8403 17.2925 34.1137 17.8377 34.5563 18.225L41.4938 24L34.5563 29.775C34.3276 29.9632 34.1388 30.195 34.0007 30.4569C33.8625 30.7188 33.7779 31.0056 33.7517 31.3005C33.7256 31.5954 33.7584 31.8926 33.8482 32.1747C33.938 32.4569 34.0831 32.7183 34.275 32.9438C34.4878 33.1942 34.752 33.3958 35.0496 33.5349C35.3473 33.6741 35.6714 33.7474 36 33.75C36.5279 33.7498 37.039 33.564 37.4438 33.225L46.4438 25.725C46.6959 25.5139 46.8987 25.25 47.0379 24.9519C47.177 24.6539 47.2491 24.329 47.2491 24C47.2491 23.6711 47.177 23.3462 47.0379 23.0482C46.8987 22.7501 46.6959 22.4862 46.4438 22.275ZM30.7688 5.38129C30.2066 5.18147 29.5884 5.2111 29.048 5.46377C28.5075 5.71645 28.0884 6.17182 27.8813 6.73129L15.8813 39.7313C15.6814 40.2934 15.7111 40.9116 15.9637 41.4521C16.2164 41.9925 16.6718 42.4117 17.2313 42.6188C17.4777 42.7077 17.738 42.7521 18 42.75C18.4626 42.7509 18.9142 42.6091 19.2933 42.3441C19.6725 42.079 19.9607 41.7035 20.1188 41.2688L32.1188 8.26879C32.3186 7.70666 32.2889 7.08845 32.0363 6.54802C31.7836 6.00758 31.3282 5.58842 30.7688 5.38129Z" fill="white"/>
</svg>
