<svg width="19" height="19" viewBox="0 0 19 19" fill="none" xmlns="http://www.w3.org/2000/svg">
<rect width="19" height="19" rx="9.5" fill="black"/>
<g clip-path="url(#clip0_359_1272)">
<path d="M9.5 5.84375C8.77686 5.84375 8.06996 6.05819 7.4687 6.45994C6.86743 6.86169 6.3988 7.43272 6.12207 8.10081C5.84533 8.76891 5.77293 9.50406 5.914 10.2133C6.05508 10.9225 6.40331 11.574 6.91464 12.0854C7.42598 12.5967 8.07746 12.9449 8.7867 13.086C9.49594 13.2271 10.2311 13.1547 10.8992 12.8779C11.5673 12.6012 12.1383 12.1326 12.5401 11.5313C12.9418 10.93 13.1562 10.2231 13.1562 9.5C13.1549 8.53071 12.7693 7.60151 12.0839 6.91612C11.3985 6.23074 10.4693 5.84509 9.5 5.84375ZM9.5 11.9375C9.01791 11.9375 8.54664 11.7945 8.1458 11.5267C7.74495 11.2589 7.43253 10.8782 7.24804 10.4328C7.06356 9.9874 7.01528 9.4973 7.10934 9.02447C7.20339 8.55164 7.43554 8.11732 7.77643 7.77643C8.11732 7.43554 8.55164 7.20339 9.02447 7.10934C9.4973 7.01528 9.9874 7.06356 10.4328 7.24804C10.8782 7.43253 11.2589 7.74495 11.5267 8.1458C11.7945 8.54664 11.9375 9.01791 11.9375 9.5C11.9375 10.1465 11.6807 10.7665 11.2236 11.2236C10.7665 11.6807 10.1465 11.9375 9.5 11.9375ZM8.89062 4.42188V3.60938C8.89062 3.44776 8.95483 3.29276 9.06911 3.17848C9.18339 3.0642 9.33838 3 9.5 3C9.66162 3 9.81661 3.0642 9.93089 3.17848C10.0452 3.29276 10.1094 3.44776 10.1094 3.60938V4.42188C10.1094 4.58349 10.0452 4.73849 9.93089 4.85277C9.81661 4.96705 9.66162 5.03125 9.5 5.03125C9.33838 5.03125 9.18339 4.96705 9.06911 4.85277C8.95483 4.73849 8.89062 4.58349 8.89062 4.42188ZM12.6586 6.34141C12.6018 6.28479 12.5567 6.21752 12.526 6.14345C12.4952 6.06938 12.4794 5.98997 12.4794 5.90977C12.4794 5.82956 12.4952 5.75015 12.526 5.67608C12.5567 5.60201 12.6018 5.53474 12.6586 5.47812L13.2324 4.9043C13.3469 4.78982 13.5022 4.72551 13.6641 4.72551C13.826 4.72551 13.9812 4.78982 14.0957 4.9043C14.2102 5.01877 14.2745 5.17404 14.2745 5.33594C14.2745 5.49783 14.2102 5.6531 14.0957 5.76758L13.5219 6.34141C13.4651 6.39795 13.3978 6.44275 13.3237 6.47324C13.2497 6.50374 13.1703 6.51934 13.0902 6.51914C12.9287 6.51844 12.7738 6.45466 12.6586 6.34141ZM16 9.5C16 9.66162 15.9358 9.81661 15.8215 9.93089C15.7072 10.0452 15.5522 10.1094 15.3906 10.1094H14.5781C14.4165 10.1094 14.2615 10.0452 14.1472 9.93089C14.033 9.81661 13.9688 9.66162 13.9688 9.5C13.9688 9.33838 14.033 9.18339 14.1472 9.06911C14.2615 8.95483 14.4165 8.89062 14.5781 8.89062H15.3906C15.5522 8.89062 15.7072 8.95483 15.8215 9.06911C15.9358 9.18339 16 9.33838 16 9.5ZM14.0957 13.2324C14.1525 13.289 14.1976 13.3563 14.2283 13.4304C14.2591 13.5044 14.2749 13.5839 14.2749 13.6641C14.2749 13.7443 14.2591 13.8237 14.2283 13.8977C14.1976 13.9718 14.1525 14.0391 14.0957 14.0957C14.0397 14.1532 13.9725 14.1986 13.8982 14.2292C13.824 14.2597 13.7443 14.2748 13.6641 14.2734C13.584 14.2736 13.5046 14.258 13.4305 14.2275C13.3565 14.197 13.2892 14.1522 13.2324 14.0957L12.6586 13.5219C12.5441 13.4074 12.4798 13.2521 12.4798 13.0902C12.4798 12.9283 12.5441 12.7731 12.6586 12.6586C12.7731 12.5441 12.9283 12.4798 13.0902 12.4798C13.2521 12.4798 13.4074 12.5441 13.5219 12.6586L14.0957 13.2324ZM10.1094 14.5781V15.3906C10.1094 15.5522 10.0452 15.7072 9.93089 15.8215C9.81661 15.9358 9.66162 16 9.5 16C9.33838 16 9.18339 15.9358 9.06911 15.8215C8.95483 15.7072 8.89062 15.5522 8.89062 15.3906V14.5781C8.89062 14.4165 8.95483 14.2615 9.06911 14.1472C9.18339 14.033 9.33838 13.9688 9.5 13.9688C9.66162 13.9688 9.81661 14.033 9.93089 14.1472C10.0452 14.2615 10.1094 14.4165 10.1094 14.5781ZM6.34141 12.6586C6.39822 12.7152 6.44329 12.7825 6.47405 12.8565C6.5048 12.9306 6.52064 13.01 6.52064 13.0902C6.52064 13.1704 6.5048 13.2499 6.47405 13.3239C6.44329 13.398 6.39822 13.4653 6.34141 13.5219L5.76758 14.0957C5.71084 14.1522 5.64352 14.197 5.56945 14.2275C5.49539 14.258 5.41604 14.2736 5.33594 14.2734C5.25568 14.2748 5.17599 14.2597 5.10176 14.2292C5.02753 14.1986 4.96034 14.1532 4.9043 14.0957C4.84749 14.0391 4.80241 13.9718 4.77165 13.8977C4.7409 13.8237 4.72507 13.7443 4.72507 13.6641C4.72507 13.5839 4.7409 13.5044 4.77165 13.4304C4.80241 13.3563 4.84749 13.289 4.9043 13.2324L5.47812 12.6586C5.53474 12.6018 5.60201 12.5567 5.67608 12.526C5.75015 12.4952 5.82956 12.4794 5.90977 12.4794C5.98997 12.4794 6.06938 12.4952 6.14345 12.526C6.21752 12.5567 6.28479 12.6018 6.34141 12.6586ZM4.42188 10.1094H3.60938C3.44776 10.1094 3.29276 10.0452 3.17848 9.93089C3.0642 9.81661 3 9.66162 3 9.5C3 9.33838 3.0642 9.18339 3.17848 9.06911C3.29276 8.95483 3.44776 8.89062 3.60938 8.89062H4.42188C4.58349 8.89062 4.73849 8.95483 4.85277 9.06911C4.96705 9.18339 5.03125 9.33838 5.03125 9.5C5.03125 9.66162 4.96705 9.81661 4.85277 9.93089C4.73849 10.0452 4.58349 10.1094 4.42188 10.1094ZM4.9043 5.76758C4.78982 5.6531 4.72551 5.49783 4.72551 5.33594C4.72551 5.17404 4.78982 5.01877 4.9043 4.9043C5.01877 4.78982 5.17404 4.72551 5.33594 4.72551C5.49783 4.72551 5.6531 4.78982 5.76758 4.9043L6.34141 5.47812C6.39822 5.53474 6.44329 5.60201 6.47405 5.67608C6.5048 5.75015 6.52064 5.82956 6.52064 5.90977C6.52064 5.98997 6.5048 6.06938 6.47405 6.14345C6.44329 6.21752 6.39822 6.28479 6.34141 6.34141C6.2262 6.45466 6.07132 6.51844 5.90977 6.51914C5.82967 6.51934 5.75032 6.50374 5.67625 6.47324C5.60219 6.44275 5.53486 6.39795 5.47812 6.34141L4.9043 5.76758Z" fill="white"/>
</g>
<defs>
<clipPath id="clip0_359_1272">
<rect width="13" height="13" fill="white" transform="translate(3 3)"/>
</clipPath>
</defs>
</svg>
