<svg width="100%" height="100%" id="svg" viewBox="0 0 1440 600" xmlns="http://www.w3.org/2000/svg" class="transition duration-300 ease-in-out delay-150"><defs><linearGradient id="gradient" x1="0%" y1="50%" x2="100%" y2="50%"><stop offset="5%" stop-color="#002bdc88"></stop><stop offset="95%" stop-color="#32ded488"></stop></linearGradient></defs><path d="M 0,600 C 0,600 0,200 0,200 C 80.18181818181822,237.12918660287082 160.36363636363643,274.25837320574163 245,253 C 329.63636363636357,231.74162679425837 418.72727272727263,152.09569377990425 539,128 C 659.2727272727274,103.90430622009573 810.7272727272727,135.35885167464116 917,155 C 1023.2727272727273,174.64114832535884 1084.3636363636363,182.46889952153109 1164,188 C 1243.6363636363637,193.53110047846891 1341.818181818182,196.76555023923447 1440,200 C 1440,200 1440,600 1440,600 Z" stroke="none" stroke-width="0" fill="url(#gradient)" class="transition-all duration-300 ease-in-out delay-150 path-0"></path><defs><linearGradient id="gradient" x1="0%" y1="50%" x2="100%" y2="50%"><stop offset="5%" stop-color="#002bdcff"></stop><stop offset="95%" stop-color="#32ded4ff"></stop></linearGradient></defs><path d="M 0,600 C 0,600 0,400 0,400 C 87.88516746411483,409.3014354066986 175.77033492822966,418.60287081339715 284,435 C 392.22966507177034,451.39712918660285 520.8038277511962,474.8899521531101 604,459 C 687.1961722488038,443.1100478468899 725.0143540669856,387.8373205741627 818,372 C 910.9856459330144,356.1626794258373 1059.1387559808613,379.7607655502392 1172,391 C 1284.8612440191387,402.2392344497608 1362.4306220095693,401.11961722488036 1440,400 C 1440,400 1440,600 1440,600 Z" stroke="none" stroke-width="0" fill="url(#gradient)" class="transition-all duration-300 ease-in-out delay-150 path-1"></path></svg>