<svg width="48" height="48" viewBox="0 0 48 48" fill="none" xmlns="http://www.w3.org/2000/svg">
<path d="M8 42C6.9 42 5.95867 41.6087 5.176 40.826C4.392 40.042 4 39.1 4 38V16C4 14.9 4.392 13.9587 5.176 13.176C5.95867 12.392 6.9 12 8 12H16V8C16 6.9 16.392 5.958 17.176 5.174C17.9587 4.39133 18.9 4 20 4H28C29.1 4 30.042 4.39133 30.826 5.174C31.6087 5.958 32 6.9 32 8V12H40C41.1 12 42.042 12.392 42.826 13.176C43.6087 13.9587 44 14.9 44 16V38C44 39.1 43.6087 40.042 42.826 40.826C42.042 41.6087 41.1 42 40 42H8ZM8 38H40V16H8V38ZM20 12H28V8H20V12Z" fill="white"/>
</svg>
